<svg width="32" height="32" viewBox="0 0 32 32" fill="none" xmlns="http://www.w3.org/2000/svg">
<path d="M16 11.9993C14.9391 11.9993 13.9217 12.4208 13.1715 13.1709C12.4214 13.9211 12 14.9385 12 15.9993C12 17.0602 12.4214 18.0776 13.1715 18.8278C13.9217 19.5779 14.9391 19.9993 16 19.9993C17.0608 19.9993 18.0782 19.5779 18.8284 18.8278C19.5785 18.0776 20 17.0602 20 15.9993C20 14.9385 19.5785 13.9211 18.8284 13.1709C18.0782 12.4208 17.0608 11.9993 16 11.9993ZM16 9.33268C17.7681 9.33268 19.4638 10.0351 20.714 11.2853C21.9642 12.5355 22.6666 14.2312 22.6666 15.9993C22.6666 17.7675 21.9642 19.4632 20.714 20.7134C19.4638 21.9636 17.7681 22.666 16 22.666C14.2318 22.666 12.5362 21.9636 11.2859 20.7134C10.0357 19.4632 9.33329 17.7675 9.33329 15.9993C9.33329 14.2312 10.0357 12.5355 11.2859 11.2853C12.5362 10.0351 14.2318 9.33268 16 9.33268ZM24.6666 8.99935C24.6666 9.44138 24.491 9.8653 24.1785 10.1779C23.8659 10.4904 23.442 10.666 23 10.666C22.5579 10.666 22.134 10.4904 21.8214 10.1779C21.5089 9.8653 21.3333 9.44138 21.3333 8.99935C21.3333 8.55732 21.5089 8.1334 21.8214 7.82084C22.134 7.50828 22.5579 7.33268 23 7.33268C23.442 7.33268 23.8659 7.50828 24.1785 7.82084C24.491 8.1334 24.6666 8.55732 24.6666 8.99935ZM16 5.33268C12.7013 5.33268 12.1626 5.34202 10.628 5.41002C9.58263 5.45935 8.88129 5.59935 8.23063 5.85268C7.65196 6.07668 7.23463 6.34468 6.79063 6.79002C6.3733 7.19321 6.05243 7.68546 5.85196 8.23002C5.59863 8.88335 5.45863 9.58335 5.41063 10.6273C5.34129 12.0993 5.33329 12.614 5.33329 15.9993C5.33329 19.298 5.34263 19.8367 5.41063 21.3713C5.45996 22.4153 5.59996 23.118 5.85196 23.7673C6.07863 24.3473 6.34529 24.7647 6.78796 25.2073C7.23729 25.6553 7.65463 25.9233 8.22796 26.1447C8.88663 26.3993 9.58796 26.5407 10.628 26.5887C12.1 26.658 12.6146 26.666 16 26.666C19.2986 26.666 19.8373 26.6567 21.372 26.5887C22.4146 26.5393 23.1173 26.3993 23.768 26.1474C24.3453 25.922 24.7653 25.654 25.208 25.2113C25.6573 24.762 25.9253 24.3447 26.1466 23.7714C26.4 23.114 26.5413 22.4113 26.5893 21.3713C26.6586 19.8993 26.6666 19.3847 26.6666 15.9993C26.6666 12.7007 26.6573 12.162 26.5893 10.6273C26.54 9.58468 26.4 8.88068 26.1466 8.23002C25.9457 7.68602 25.6254 7.19396 25.2093 6.79002C24.8063 6.37248 24.314 6.05157 23.7693 5.85135C23.116 5.59802 22.4146 5.45802 21.372 5.41002C19.9 5.34068 19.3853 5.33268 16 5.33268ZM16 2.66602C19.6226 2.66602 20.0746 2.67935 21.496 2.74602C22.916 2.81268 23.8826 3.03535 24.7333 3.36602C25.6133 3.70468 26.3546 4.16335 27.096 4.90335C27.774 5.56988 28.2986 6.37613 28.6333 7.26602C28.9626 8.11535 29.1866 9.08335 29.2533 10.5033C29.316 11.9247 29.3333 12.3767 29.3333 15.9993C29.3333 19.622 29.32 20.074 29.2533 21.4953C29.1866 22.9153 28.9626 23.882 28.6333 24.7327C28.2995 25.6231 27.7748 26.4295 27.096 27.0954C26.4292 27.7731 25.623 28.2977 24.7333 28.6327C23.884 28.962 22.916 29.186 21.496 29.2527C20.0746 29.3153 19.6226 29.3327 16 29.3327C12.3773 29.3327 11.9253 29.3194 10.504 29.2527C9.08396 29.186 8.11729 28.962 7.26663 28.6327C6.37639 28.2986 5.57 27.7739 4.90396 27.0954C4.22583 26.4289 3.7012 25.6226 3.36663 24.7327C3.03596 23.8833 2.81329 22.9153 2.74663 21.4953C2.68396 20.074 2.66663 19.622 2.66663 15.9993C2.66663 12.3767 2.67996 11.9247 2.74663 10.5033C2.81329 9.08202 3.03596 8.11668 3.36663 7.26602C3.70027 6.37559 4.22503 5.56911 4.90396 4.90335C5.57019 4.22499 6.37653 3.70032 7.26663 3.36602C8.11729 3.03535 9.08263 2.81268 10.504 2.74602C11.9253 2.68335 12.3773 2.66602 16 2.66602Z" fill="#058DC7"/>
</svg>
