<svg width="50" height="50" viewBox="0 0 50 50" fill="none" xmlns="http://www.w3.org/2000/svg">
<circle cx="25" cy="25" r="24" fill="#313131" stroke="#C5C6C6" stroke-width="2"/>
<path d="M25 22C24.2044 22 23.4413 22.3161 22.8787 22.8787C22.3161 23.4413 22 24.2044 22 25C22 25.7956 22.3161 26.5587 22.8787 27.1213C23.4413 27.6839 24.2044 28 25 28C25.7956 28 26.5587 27.6839 27.1213 27.1213C27.6839 26.5587 28 25.7956 28 25C28 24.2044 27.6839 23.4413 27.1213 22.8787C26.5587 22.3161 25.7956 22 25 22ZM25 20C26.3261 20 27.5979 20.5268 28.5355 21.4645C29.4732 22.4021 30 23.6739 30 25C30 26.3261 29.4732 27.5979 28.5355 28.5355C27.5979 29.4732 26.3261 30 25 30C23.6739 30 22.4021 29.4732 21.4645 28.5355C20.5268 27.5979 20 26.3261 20 25C20 23.6739 20.5268 22.4021 21.4645 21.4645C22.4021 20.5268 23.6739 20 25 20ZM31.5 19.75C31.5 20.0815 31.3683 20.3995 31.1339 20.6339C30.8995 20.8683 30.5815 21 30.25 21C29.9185 21 29.6005 20.8683 29.3661 20.6339C29.1317 20.3995 29 20.0815 29 19.75C29 19.4185 29.1317 19.1005 29.3661 18.8661C29.6005 18.6317 29.9185 18.5 30.25 18.5C30.5815 18.5 30.8995 18.6317 31.1339 18.8661C31.3683 19.1005 31.5 19.4185 31.5 19.75ZM25 17C22.526 17 22.122 17.007 20.971 17.058C20.187 17.095 19.661 17.2 19.173 17.39C18.739 17.558 18.426 17.759 18.093 18.093C17.78 18.3954 17.5394 18.7646 17.389 19.173C17.199 19.663 17.094 20.188 17.058 20.971C17.006 22.075 17 22.461 17 25C17 27.474 17.007 27.878 17.058 29.029C17.095 29.812 17.2 30.339 17.389 30.826C17.559 31.261 17.759 31.574 18.091 31.906C18.428 32.242 18.741 32.443 19.171 32.609C19.665 32.8 20.191 32.906 20.971 32.942C22.075 32.994 22.461 33 25 33C27.474 33 27.878 32.993 29.029 32.942C29.811 32.905 30.338 32.8 30.826 32.611C31.259 32.442 31.574 32.241 31.906 31.909C32.243 31.572 32.444 31.259 32.61 30.829C32.8 30.336 32.906 29.809 32.942 29.029C32.994 27.925 33 27.539 33 25C33 22.526 32.993 22.122 32.942 20.971C32.905 20.189 32.8 19.661 32.61 19.173C32.4593 18.765 32.2191 18.396 31.907 18.093C31.6047 17.7798 31.2355 17.5392 30.827 17.389C30.337 17.199 29.811 17.094 29.029 17.058C27.925 17.006 27.539 17 25 17ZM25 15C27.717 15 28.056 15.01 29.122 15.06C30.187 15.11 30.912 15.277 31.55 15.525C32.21 15.779 32.766 16.123 33.322 16.678C33.8305 17.1779 34.224 17.7826 34.475 18.45C34.722 19.087 34.89 19.813 34.94 20.878C34.987 21.944 35 22.283 35 25C35 27.717 34.99 28.056 34.94 29.122C34.89 30.187 34.722 30.912 34.475 31.55C34.2247 32.2178 33.8311 32.8226 33.322 33.322C32.822 33.8303 32.2173 34.2238 31.55 34.475C30.913 34.722 30.187 34.89 29.122 34.94C28.056 34.987 27.717 35 25 35C22.283 35 21.944 34.99 20.878 34.94C19.813 34.89 19.088 34.722 18.45 34.475C17.7823 34.2245 17.1775 33.8309 16.678 33.322C16.1694 32.8222 15.7759 32.2175 15.525 31.55C15.277 30.913 15.11 30.187 15.06 29.122C15.013 28.056 15 27.717 15 25C15 22.283 15.01 21.944 15.06 20.878C15.11 19.812 15.277 19.088 15.525 18.45C15.7752 17.7822 16.1688 17.1773 16.678 16.678C17.1777 16.1692 17.7824 15.7757 18.45 15.525C19.088 15.277 19.812 15.11 20.878 15.06C21.944 15.013 22.283 15 25 15Z" fill="#C5C6C6"/>
</svg>
