<svg width="50" height="50" viewBox="0 0 50 50" fill="none" xmlns="http://www.w3.org/2000/svg">
<circle cx="25" cy="25" r="24" fill="#313131" stroke="#C5C6C6" stroke-width="2"/>
<path d="M20.253 31.494L20.977 31.917C22.198 32.6291 23.5866 33.0029 25 33C26.5823 33 28.129 32.5308 29.4446 31.6518C30.7602 30.7727 31.7855 29.5233 32.3911 28.0615C32.9966 26.5997 33.155 24.9911 32.8463 23.4393C32.5376 21.8874 31.7757 20.462 30.6569 19.3431C29.538 18.2243 28.1126 17.4624 26.5607 17.1537C25.0089 16.845 23.4004 17.0035 21.9385 17.609C20.4767 18.2145 19.2273 19.2398 18.3483 20.5554C17.4692 21.871 17 23.4177 17 25C17 26.436 17.377 27.813 18.084 29.024L18.506 29.748L17.853 32.149L20.253 31.494ZM15.004 35L16.356 30.032C15.4652 28.5049 14.9971 26.768 15 25C15 19.477 19.477 15 25 15C30.523 15 35 19.477 35 25C35 30.523 30.523 35 25 35C23.2328 35.0029 21.4967 34.5352 19.97 33.645L15.004 35ZM21.391 20.308C21.525 20.298 21.66 20.298 21.794 20.304C21.848 20.308 21.902 20.314 21.956 20.32C22.115 20.338 22.29 20.435 22.349 20.569C22.647 21.245 22.937 21.926 23.217 22.609C23.279 22.761 23.242 22.956 23.124 23.146C23.0429 23.2745 22.9551 23.3986 22.861 23.518C22.748 23.663 22.505 23.929 22.505 23.929C22.505 23.929 22.406 24.047 22.444 24.194C22.458 24.25 22.504 24.331 22.546 24.399L22.605 24.494C22.861 24.921 23.205 25.354 23.625 25.762C23.745 25.878 23.862 25.997 23.988 26.108C24.456 26.521 24.986 26.858 25.558 27.108L25.563 27.11C25.648 27.147 25.691 27.167 25.815 27.22C25.877 27.246 25.941 27.269 26.006 27.286C26.0732 27.3031 26.1439 27.2999 26.2093 27.2767C26.2746 27.2536 26.3316 27.2116 26.373 27.156C27.097 26.279 27.163 26.222 27.169 26.222V26.224C27.2193 26.1771 27.2791 26.1415 27.3443 26.1196C27.4095 26.0977 27.4786 26.09 27.547 26.097C27.607 26.101 27.668 26.112 27.724 26.137C28.255 26.38 29.124 26.759 29.124 26.759L29.706 27.02C29.804 27.067 29.893 27.178 29.896 27.285C29.9 27.352 29.906 27.46 29.883 27.658C29.851 27.917 29.773 28.228 29.695 28.391C29.6416 28.5022 29.5707 28.6042 29.485 28.693C29.3841 28.7989 29.2736 28.8954 29.155 28.981C29.114 29.0119 29.0723 29.0419 29.03 29.071C28.9056 29.1499 28.7778 29.2233 28.647 29.291C28.3895 29.4278 28.1052 29.5063 27.814 29.521C27.629 29.531 27.444 29.545 27.258 29.535C27.25 29.535 26.69 29.448 26.69 29.448C25.2683 29.074 23.9534 28.3735 22.85 27.402C22.624 27.203 22.415 26.989 22.201 26.776C21.311 25.891 20.639 24.936 20.231 24.034C20.0222 23.5913 19.9094 23.1094 19.9 22.62C19.8959 22.0129 20.0944 21.4217 20.464 20.94C20.537 20.846 20.606 20.748 20.725 20.635C20.852 20.515 20.932 20.451 21.019 20.407C21.1347 20.349 21.2609 20.315 21.39 20.307L21.391 20.308Z" fill="#C5C6C6"/>
</svg>
