<svg width="32" height="32" viewBox="0 0 32 32" fill="none" xmlns="http://www.w3.org/2000/svg">
<path d="M9.67064 24.658L10.636 25.222C12.2639 26.1714 14.1154 26.6699 16 26.666C18.1096 26.666 20.1719 26.0404 21.9261 24.8684C23.6802 23.6963 25.0474 22.0304 25.8547 20.0813C26.662 18.1322 26.8733 15.9875 26.4617 13.9184C26.0501 11.8493 25.0342 9.94864 23.5424 8.45688C22.0507 6.96512 20.1501 5.94922 18.0809 5.53764C16.0118 5.12606 13.8671 5.3373 11.918 6.14463C9.96894 6.95197 8.30304 8.31914 7.13097 10.0733C5.9589 11.8274 5.33331 13.8897 5.33331 15.9993C5.33331 17.914 5.83598 19.75 6.77864 21.3647L7.34131 22.33L6.47064 25.5313L9.67064 24.658ZM2.67198 29.3327L4.47464 22.7087C3.28683 20.6725 2.66277 18.3567 2.66664 15.9993C2.66664 8.63535 8.63598 2.66602 16 2.66602C23.364 2.66602 29.3333 8.63535 29.3333 15.9993C29.3333 23.3633 23.364 29.3327 16 29.3327C13.6437 29.3365 11.3289 28.7129 9.29331 27.526L2.67198 29.3327ZM11.188 9.74335C11.3666 9.73002 11.5466 9.73002 11.7253 9.73802C11.7973 9.74335 11.8693 9.75135 11.9413 9.75935C12.1533 9.78335 12.3866 9.91268 12.4653 10.0913C12.8626 10.9927 13.2493 11.9007 13.6226 12.8113C13.7053 13.014 13.656 13.274 13.4986 13.5273C13.3904 13.6987 13.2734 13.8642 13.148 14.0233C12.9973 14.2167 12.6733 14.5713 12.6733 14.5713C12.6733 14.5713 12.5413 14.7287 12.592 14.9247C12.6106 14.9993 12.672 15.1073 12.728 15.198L12.8066 15.3247C13.148 15.894 13.6066 16.4713 14.1666 17.0153C14.3266 17.17 14.4826 17.3287 14.6506 17.4767C15.2746 18.0273 15.9813 18.4767 16.744 18.81L16.7506 18.8127C16.864 18.862 16.9213 18.8887 17.0866 18.9593C17.1693 18.994 17.2546 19.0247 17.3413 19.0473C17.4309 19.0702 17.5252 19.0659 17.6123 19.035C17.6994 19.0041 17.7754 18.9481 17.8306 18.874C18.796 17.7047 18.884 17.6287 18.892 17.6287V17.6313C18.959 17.5688 19.0387 17.5213 19.1256 17.4921C19.2126 17.4629 19.3048 17.4526 19.396 17.462C19.476 17.4673 19.5573 17.482 19.632 17.5153C20.34 17.8393 21.4986 18.3447 21.4986 18.3447L22.2746 18.6927C22.4053 18.7553 22.524 18.9033 22.528 19.046C22.5333 19.1353 22.5413 19.2793 22.5106 19.5433C22.468 19.8887 22.364 20.3033 22.26 20.5207C22.1888 20.669 22.0942 20.8049 21.98 20.9233C21.8454 21.0646 21.6981 21.1932 21.54 21.3073C21.4853 21.3485 21.4297 21.3885 21.3733 21.4273C21.2075 21.5326 21.0371 21.6304 20.8626 21.7207C20.5194 21.903 20.1402 22.0077 19.752 22.0273C19.5053 22.0407 19.2586 22.0593 19.0106 22.046C19 22.046 18.2533 21.93 18.2533 21.93C16.3576 21.4314 14.6045 20.4973 13.1333 19.202C12.832 18.9367 12.5533 18.6513 12.268 18.3673C11.0813 17.1873 10.1853 15.914 9.64131 14.7113C9.36287 14.1211 9.21246 13.4786 9.19998 12.826C9.19448 12.0165 9.45911 11.2282 9.95198 10.586C10.0493 10.4607 10.1413 10.33 10.3 10.1793C10.4693 10.0193 10.576 9.93402 10.692 9.87535C10.8462 9.79806 11.0145 9.75271 11.1866 9.74202L11.188 9.74335Z" fill="#058DC7"/>
</svg>
